<svg xmlns="http://www.w3.org/2000/svg" width="27" height="27"><defs><linearGradient id="a" x1="9.901%" x2="100%" y1="0%" y2="100%"><stop offset="0%" stop-color="#DF9AE2"/><stop offset="48.755%" stop-color="#A9A5FF"/><stop offset="100%" stop-color="#00C5FF"/></linearGradient></defs><path d="M7.775 22.452c.36.36.36.93 0 1.26l-1.801 1.802c-.18.18-.39.27-.63.27s-.45-.09-.63-.27c-.361-.36-.361-.93 0-1.261l1.8-1.801c.36-.36.93-.36 1.261 0zM5.554 20.23c.36.36.36.93 0 1.261L2.01 25.033c-.18.18-.39.27-.63.27s-.45-.09-.63-.27c-.36-.36-.36-.93 0-1.26l3.542-3.543c.36-.36.93-.36 1.26 0zm9.54-17.225c1.659-1.615 5.48-3.85 9.732-2.678.3.09.54.33.63.63 1.202 4.353-1.17 8.256-2.791 9.847l-4.383 4.383 1.23 3.902c.12.3.03.66-.21.901l-2.761 2.762c-.15.18-.39.27-.63.27s-.45-.09-.63-.27l-2.703-2.702-2.521 1.501c-.36.21-.81.15-1.111-.15l-4.563-4.563a.91.91 0 01-.15-1.11l1.5-2.522-2.701-2.702c-.18-.15-.27-.39-.27-.63s.09-.45.27-.631l2.762-2.762c.24-.24.6-.33.93-.21l3.873 1.26.149-.148.651-.652.529-.528.54-.542.358-.358.348-.35c.913-.916 1.67-1.68 1.778-1.804l.145-.144zM3.333 18.009c.36.36.36.93 0 1.26l-1.801 1.802c-.18.18-.39.27-.63.27s-.45-.09-.63-.27c-.361-.36-.361-.93 0-1.261l1.8-1.801c.36-.36.931-.36 1.261 0zm20.474-16.06c-3.333-.691-6.304 1.17-7.565 2.43-.186.207-1.053 1.08-2.484 2.513l-1.061 1.063-.718.717-.51.511c-.24.24-.6.33-.931.21l-3.873-1.26-1.74 1.74L15.91 20.862l1.742-1.741-1.231-3.903c-.12-.3-.03-.66.21-.9l4.743-4.774c1.26-1.26 3.122-4.232 2.432-7.595zM7.055 14.526l-.901 1.53 3.572 3.573 1.531-.93-4.202-4.173zM18.942 4.53c1.261 0 2.312 1.05 2.312 2.311s-1.05 2.312-2.312 2.312a2.332 2.332 0 01-2.311-2.312c0-1.26 1.05-2.311 2.311-2.311zm0 1.801c-.27 0-.51.24-.51.51s.24.51.51.51.51-.24.51-.51-.24-.51-.51-.51z" transform="translate(.25 .25)" fill="url(#a)" fill-rule="nonzero"/></svg>